<svg width="65" height="65" viewBox="0 0 65 65" fill="none" xmlns="http://www.w3.org/2000/svg">
<rect x="0.560425" y="0.53125" width="64" height="64" fill="#00C6DF"/>
<g clip-path="url(#clip0_1_118)">
<path d="M29.5835 44.5856V30.2838L24.3447 35.5954C23.9831 35.962 23.3956 35.962 23.034 35.5954L20.8316 33.3624C20.47 32.9958 20.47 32.4001 20.8316 32.0335L31.9051 20.8062C32.2666 20.4396 32.8542 20.4396 33.2158 20.8062L44.2892 32.0335C44.6508 32.4001 44.6508 32.9958 44.2892 33.3624L42.0869 35.5954C41.7253 35.962 41.1377 35.962 40.7761 35.5954L35.1511 29.8964V44.5897C35.1511 45.1105 34.7361 45.5312 34.2225 45.5312H30.508C29.9985 45.5271 29.5835 45.1022 29.5835 44.5856Z" fill="white"/>
</g>
<defs>
<clipPath id="clip0_1_118">
<rect width="24" height="25" fill="white" transform="translate(20.5604 20.5312)"/>
</clipPath>
</defs>
</svg>
