<svg width="65" height="65" viewBox="0 0 65 65" fill="none" xmlns="http://www.w3.org/2000/svg">
<rect x="0.560425" y="0.53125" width="64" height="64" fill="#FF5437"/>
<g clip-path="url(#clip0_1_58)">
<path d="M44.1644 22.8707C44.0444 22.7834 43.9052 22.7534 43.7684 22.716H25.3892C25.862 23.1578 26.1644 23.7944 26.1644 24.5058C26.1644 25.2172 25.862 25.8513 25.3916 26.2956C31.4756 26.2931 37.5596 26.2906 43.6436 26.2906H43.7156C43.9124 26.2931 44.0828 26.2232 44.234 26.0984C44.4044 25.9586 44.4956 25.7689 44.5604 25.5617V23.4648C44.4932 23.2202 44.3708 23.0155 44.1644 22.8707ZM24.3572 24.5058C24.3572 25.5967 23.5076 26.4803 22.4588 26.4803C21.41 26.4803 20.5604 25.5967 20.5604 24.5058C20.5604 23.4149 21.41 22.5312 22.4588 22.5312C23.5076 22.5312 24.3572 23.4149 24.3572 24.5058ZM43.7684 28.0704H25.3892C25.862 28.5148 26.1644 29.1488 26.1644 29.8603C26.1644 30.5717 25.862 31.2082 25.3916 31.6501C31.4756 31.6476 37.5596 31.6476 43.6436 31.6476H43.7156C43.9124 31.6501 44.0828 31.5777 44.234 31.4529C44.4044 31.3131 44.4956 31.1234 44.5604 30.9162V28.8193C44.4932 28.5747 44.3708 28.37 44.1644 28.2252C44.0444 28.1403 43.9052 28.1079 43.7684 28.0704ZM24.3572 29.8603C24.3572 30.9511 23.5076 31.8373 22.4588 31.8373C21.41 31.8373 20.5604 30.9511 20.5604 29.8603C20.5604 28.7719 21.41 27.8857 22.4588 27.8857C23.5076 27.8857 24.3572 28.7719 24.3572 29.8603ZM43.7684 33.4199H25.3892C25.862 33.8643 26.1644 34.4983 26.1644 35.2097C26.1644 35.9212 25.862 36.5577 25.3916 36.9995C31.4756 36.9971 37.5596 36.9971 43.6436 36.9971H43.7156C43.9124 36.9995 44.0828 36.9272 44.234 36.8023C44.4044 36.6626 44.4956 36.4728 44.5604 36.2681V34.1688C44.4932 33.9242 44.3708 33.7195 44.1644 33.5747C44.0444 33.4898 43.9052 33.4574 43.7684 33.4199ZM24.3572 35.2097C24.3572 36.3006 23.5076 37.1868 22.4588 37.1868C21.41 37.1868 20.5604 36.3006 20.5604 35.2097C20.5604 34.1214 21.41 33.2352 22.4588 33.2352C23.5076 33.2352 24.3572 34.1214 24.3572 35.2097ZM43.7684 38.7669H25.3892C25.862 39.2087 26.1644 39.8453 26.1644 40.5567C26.1644 41.2681 25.862 41.9022 25.3916 42.3465C31.4756 42.344 37.5596 42.3415 43.6436 42.3415H43.7156C43.9124 42.3465 44.0828 42.2741 44.234 42.1493C44.4044 42.0095 44.4956 41.8198 44.5604 41.6126V39.5158C44.4932 39.2711 44.3708 39.0664 44.1644 38.9217C44.0444 38.8343 43.9052 38.8043 43.7684 38.7669ZM24.3572 40.5567C24.3572 41.6476 23.5076 42.5312 22.4588 42.5312C21.41 42.5312 20.5604 41.6476 20.5604 40.5567C20.5604 39.4658 21.41 38.5822 22.4588 38.5822C23.5076 38.5822 24.3572 39.4658 24.3572 40.5567Z" fill="white"/>
</g>
<defs>
<clipPath id="clip0_1_58">
<rect width="24" height="20" fill="white" transform="translate(20.5604 22.5312)"/>
</clipPath>
</defs>
</svg>
