<svg width="65" height="65" viewBox="0 0 65 65" fill="none" xmlns="http://www.w3.org/2000/svg">
<rect x="0.684082" y="0.53125" width="64" height="64" fill="#FF9209"/>
<g clip-path="url(#clip0_1_133)">
<path d="M23.6483 39.8837L24.5759 37.2421H30.1818L31.1094 39.8837H34.0938L29.0324 26H25.7455L20.6841 39.8837H23.6483ZM29.4155 35.0175H25.3422L27.3789 29.2177L29.4155 35.0175ZM38.9046 40.0625C39.7381 40.0625 40.4741 39.8937 41.1127 39.556C41.7513 39.2184 42.252 38.7913 42.615 38.2749V39.8837H45.4583V28.88H42.615V30.4492C42.2386 29.946 41.7378 29.5289 41.1127 29.1978C40.4876 28.8668 39.7583 28.7013 38.9248 28.7013C37.9703 28.7013 37.1066 28.933 36.3336 29.3965C35.5606 29.8599 34.9489 30.522 34.4986 31.3827C34.0482 32.2434 33.823 33.2299 33.823 34.3422C33.823 35.4677 34.0482 36.4641 34.4986 37.3314C34.9489 38.1988 35.5606 38.8708 36.3336 39.3475C37.1066 39.8242 37.9636 40.0625 38.9046 40.0625ZM39.6507 37.6194C39.1399 37.6194 38.6593 37.487 38.2089 37.2222C37.7586 36.9574 37.3956 36.5767 37.12 36.0801C36.8444 35.5836 36.7066 35.0042 36.7066 34.3422C36.7066 33.6801 36.8444 33.1074 37.12 32.6241C37.3956 32.1408 37.7552 31.7733 38.1989 31.5217C38.6425 31.2701 39.1265 31.1443 39.6507 31.1443C40.175 31.1443 40.6657 31.2734 41.1228 31.5316C41.5799 31.7899 41.9428 32.1606 42.2117 32.6439C42.4806 33.1273 42.615 33.7066 42.615 34.3819C42.615 35.0572 42.4806 35.6365 42.2117 36.1198C41.9428 36.6032 41.5799 36.9739 41.1228 37.2321C40.6657 37.4903 40.175 37.6194 39.6507 37.6194Z" fill="white"/>
</g>
<defs>
<clipPath id="clip0_1_133">
<rect width="24" height="25" fill="white" transform="translate(20.6841 20.5312)"/>
</clipPath>
</defs>
</svg>
