<svg width="65" height="65" viewBox="0 0 65 65" fill="none" xmlns="http://www.w3.org/2000/svg">
<rect x="0.684082" y="0.53125" width="64" height="64" fill="#B25DF8"/>
<g clip-path="url(#clip0_1_89)">
<path d="M32.0338 24.5312H33.3249C33.4017 24.548 33.4785 24.5744 33.5577 24.5792C34.4913 24.6511 35.3961 24.862 36.2696 25.1832C39.3679 26.329 41.8974 28.2682 43.9829 30.7994C44.9309 31.95 44.9093 33.1197 43.9685 34.2823C42.675 35.8835 41.139 37.2138 39.4087 38.3212C37.9832 39.2321 36.464 39.9344 34.8009 40.2892C34.3137 40.3922 33.8169 40.4521 33.3249 40.5312H32.0338C31.957 40.5145 31.8778 40.4881 31.7986 40.4833C30.9946 40.4162 30.2075 40.2508 29.4443 39.9919C26.154 38.8773 23.5117 36.8518 21.3206 34.2008C20.9678 33.7741 20.7398 33.2779 20.6918 32.717C20.627 31.914 20.9774 31.262 21.4694 30.6676C22.7869 29.0784 24.3349 27.7456 26.0844 26.6502C27.5411 25.7369 29.0915 25.0442 30.7906 24.7206C31.2034 24.6415 31.6186 24.5936 32.0338 24.5312ZM27.6779 32.5324C27.6779 35.2722 29.9219 37.5206 32.665 37.5254C35.4153 37.5326 37.6784 35.2746 37.6784 32.5277C37.6784 29.7879 35.4297 27.5419 32.6866 27.5371C29.9267 27.5323 27.6779 29.7759 27.6779 32.5324ZM33.6201 29.704C32.6242 30.5357 32.4058 31.425 32.9913 32.2712C33.5817 33.1245 34.4697 33.2228 35.6576 32.5684C35.78 33.5895 34.9209 34.8647 33.8025 35.3154C32.5402 35.8235 31.081 35.4136 30.2746 34.3278C29.4539 33.2228 29.4731 31.7247 30.3226 30.67C31.129 29.668 32.5762 29.2438 33.6201 29.704Z" fill="white"/>
</g>
<defs>
<clipPath id="clip0_1_89">
<rect width="24" height="16" fill="white" transform="translate(20.6841 24.5312)"/>
</clipPath>
</defs>
</svg>
