<svg width="65" height="65" viewBox="0 0 65 65" fill="none" xmlns="http://www.w3.org/2000/svg">
<rect x="0.411133" y="0.53125" width="64" height="64" fill="#0278ED"/>
<g clip-path="url(#clip0_1_103)">
<path d="M44.4067 23.2282C44.4039 21.8811 43.6225 21.2035 42.241 21.2386C41.7721 21.2494 41.6688 21.4275 41.68 21.8298C41.6995 22.5101 41.7107 23.1931 41.6744 23.8734C41.6186 24.9749 40.9432 25.6606 39.8157 25.747C39.2184 25.7928 38.6128 25.7901 38.0183 25.7497C36.8071 25.6687 36.1289 24.9587 36.101 23.7816C36.087 23.1256 36.0786 22.4696 36.1037 21.8136C36.1205 21.3924 35.9726 21.2413 35.526 21.244C33.4384 21.2629 31.3508 21.2629 29.266 21.244C28.7915 21.2386 28.6994 21.4356 28.7134 21.8325C28.7357 22.5128 28.7329 23.1958 28.7162 23.8761C28.6911 24.9047 28.0771 25.6039 27.0221 25.72C26.3774 25.7928 25.7188 25.7874 25.0685 25.7497C23.8823 25.6822 23.2209 25.0019 23.179 23.8464C23.1567 23.1661 23.1539 22.4831 23.179 21.8028C23.1958 21.3735 23.0227 21.2494 22.5873 21.2413C21.1668 21.2116 20.4132 21.9 20.4132 23.3038C20.4104 30.0178 20.4104 36.7291 20.4132 43.4431C20.4132 44.8901 21.0579 45.5245 22.5511 45.5272C29.1265 45.5326 35.6991 45.5326 42.2745 45.5272C43.7788 45.5272 44.4067 44.9063 44.4067 43.4458C44.4123 40.0901 44.4067 36.7318 44.4067 33.3761C44.4095 29.9908 44.4151 26.6081 44.4067 23.2282ZM23.1455 28.0011C23.1427 27.6502 23.299 27.5098 23.6618 27.5098C25.1969 27.5179 26.7319 27.5179 28.2641 27.5125C28.5934 27.5125 28.7218 27.6448 28.719 27.9661C28.7078 29.1728 28.705 30.3822 28.7218 31.589C28.7274 31.9885 28.5041 32.0344 28.1803 32.0317C27.4268 32.0236 26.6732 32.029 25.9169 32.029C25.1634 32.029 24.407 32.0182 23.6535 32.0344C23.2879 32.0425 23.1399 31.9075 23.1427 31.5512C23.1567 30.366 23.1539 29.1836 23.1455 28.0011ZM28.7246 42.3362C28.7301 42.7223 28.599 42.8762 28.1915 42.8708C26.7095 42.8573 25.2276 42.8573 23.7456 42.8708C23.313 42.8762 23.1372 42.7304 23.1427 42.3038C23.1595 41.1457 23.1567 39.9902 23.1455 38.8321C23.1427 38.4784 23.2879 38.3381 23.6535 38.3462C24.407 38.3624 25.1606 38.3516 25.9169 38.3516C26.6705 38.3516 27.4268 38.3651 28.1803 38.3462C28.5766 38.3354 28.7329 38.4649 28.7274 38.8645C28.705 40.0226 28.7078 41.1808 28.7246 42.3362ZM28.0938 37.4634C27.3654 37.4337 26.6342 37.4553 25.903 37.4553C25.1996 37.4553 24.4935 37.4337 23.7902 37.4634C23.3325 37.4823 23.1288 37.3608 23.1399 36.8776C23.1651 35.7437 23.1623 34.6072 23.1427 33.4706C23.1344 33.0333 23.3186 32.9118 23.7456 32.9172C25.2052 32.9361 26.6677 32.9442 28.1273 32.9145C28.6353 32.9037 28.7357 33.1035 28.7274 33.5381C28.705 34.6477 28.6967 35.7599 28.7301 36.8695C28.7413 37.35 28.5571 37.4823 28.0938 37.4634ZM30.1647 27.5125C31.6522 27.5206 33.1398 27.5233 34.6273 27.5098C35.0292 27.5071 35.1827 27.6502 35.1772 28.0416C35.1604 29.2025 35.1576 30.3633 35.1772 31.5242C35.1827 31.9372 34.993 32.0398 34.6106 32.0317C33.8543 32.0155 33.0979 32.0263 32.3416 32.0263C31.6104 32.0263 30.8792 32.0155 30.1507 32.0317C29.7823 32.0398 29.6456 31.9048 29.6484 31.5458C29.6623 30.3606 29.6623 29.1728 29.6484 27.9876C29.6428 27.6151 29.813 27.5098 30.1647 27.5125ZM29.6456 33.449C29.64 33.0657 29.7656 32.9145 30.1814 32.9199C31.6662 32.9388 33.151 32.9361 34.6385 32.9199C35.0516 32.9145 35.1827 33.0684 35.1772 33.4517C35.1632 34.6099 35.1632 35.7707 35.1772 36.9316C35.1827 37.3176 35.046 37.4715 34.6357 37.4607C33.8794 37.4391 33.1258 37.4553 32.3695 37.4553C31.6662 37.4553 30.9629 37.4418 30.2596 37.4607C29.8521 37.4742 29.6344 37.3905 29.6456 36.9289C29.6707 35.7707 29.6623 34.6099 29.6456 33.449ZM35.1827 42.266C35.1939 42.7304 35.0181 42.8816 34.5464 42.8762C33.1119 42.8546 31.6774 42.86 30.24 42.8735C29.813 42.8789 29.6316 42.7574 29.6428 42.3146C29.6679 41.1781 29.6679 40.0442 29.6428 38.9077C29.6344 38.4757 29.7935 38.33 30.2289 38.3462C30.9573 38.3705 31.6885 38.3543 32.4197 38.3543C33.123 38.3543 33.8291 38.3732 34.5325 38.3462C34.9902 38.33 35.1911 38.4541 35.18 38.9347C35.152 40.0442 35.1548 41.1565 35.1827 42.266ZM36.0926 28.047C36.087 27.661 36.2265 27.5044 36.634 27.5098C38.1188 27.5233 39.6008 27.5233 41.0855 27.5098C41.5042 27.5071 41.7023 27.6313 41.6939 28.0713C41.6744 29.2295 41.68 30.3876 41.6912 31.5458C41.6939 31.9021 41.5516 32.0398 41.1832 32.0317C40.4018 32.0182 39.6203 32.0263 38.8416 32.0263C38.1383 32.0263 37.435 32.0074 36.7345 32.0344C36.2796 32.0506 36.0786 31.9264 36.0926 31.4459C36.1177 30.3147 36.1093 29.1809 36.0926 28.047ZM41.6884 42.3848C41.6912 42.7493 41.5125 42.8681 41.1637 42.8681C39.6287 42.8627 38.0909 42.8627 36.5559 42.8681C36.2265 42.8681 36.0926 42.7304 36.0953 42.4118C36.1037 41.2024 36.1065 39.9956 36.0953 38.7862C36.0926 38.384 36.3354 38.3489 36.6508 38.3516C37.4043 38.357 38.1606 38.3543 38.9142 38.3543C39.6677 38.3543 40.4241 38.3651 41.1776 38.3516C41.5432 38.3435 41.6912 38.4784 41.6856 38.8375C41.6772 40.0172 41.6772 41.2024 41.6884 42.3848ZM41.0437 37.4607C40.3152 37.4337 39.5868 37.4526 38.8584 37.4526C38.1048 37.4526 37.3485 37.4391 36.5949 37.4553C36.2265 37.4634 36.087 37.3257 36.0926 36.9693C36.1037 35.7869 36.1093 34.6045 36.0898 33.422C36.0842 33.009 36.274 32.9145 36.6563 32.9172C38.1383 32.9307 39.6203 32.9334 41.1023 32.9145C41.5432 32.9091 41.6995 33.0549 41.6912 33.4787C41.6716 34.6099 41.666 35.7437 41.6939 36.8749C41.7079 37.3662 41.493 37.4769 41.0437 37.4607ZM26.0509 24.8291C26.997 24.767 27.731 24.0381 27.7784 23.0878C27.8008 22.61 27.7812 22.1294 27.7812 21.6516C27.7812 21.1981 27.798 20.7445 27.7784 20.291C27.7338 19.3299 27.0165 18.6064 26.0676 18.5362C25.1271 18.4687 24.2759 19.095 24.1475 20.0534C24.0023 21.1279 24.0079 22.2212 24.1447 23.2957C24.2647 24.2541 25.1131 24.8885 26.0509 24.8291ZM38.8333 24.8318C39.8491 24.8696 40.6697 24.1029 40.7422 23.0203C40.7701 22.5938 40.7478 22.1645 40.7478 21.7353H40.745C40.745 21.2575 40.7757 20.7742 40.7395 20.2991C40.6585 19.2624 39.8519 18.52 38.864 18.5335C37.8732 18.547 37.0778 19.3083 37.0387 20.345C37.0052 21.2251 37.008 22.1105 37.0387 22.9906C37.0722 24.0381 37.8313 24.794 38.8333 24.8318Z" fill="white"/>
</g>
<defs>
<clipPath id="clip0_1_103">
<rect width="24" height="27" fill="white" transform="translate(20.4111 18.5312)"/>
</clipPath>
</defs>
</svg>
