<svg width="65" height="65" viewBox="0 0 65 65" fill="none" xmlns="http://www.w3.org/2000/svg">
<rect x="0.411133" y="0.53125" width="64" height="64" fill="#E738CE"/>
<g clip-path="url(#clip0_1_73)">
<path d="M33.5724 22.0938H21.9595C21.1044 22.0938 20.4111 22.7933 20.4111 23.6562V42.4062C20.4111 43.2692 21.1044 43.9688 21.9595 43.9688H33.5724C34.4276 43.9688 35.1208 43.2692 35.1208 42.4062V23.6562C35.1208 22.7933 34.4276 22.0938 33.5724 22.0938Z" fill="white"/>
<path d="M42.8627 22.0938H38.9918C38.1366 22.0938 37.4434 22.7933 37.4434 23.6562V42.4062C37.4434 43.2692 38.1366 43.9688 38.9918 43.9688H42.8627C43.7179 43.9688 44.4111 43.2692 44.4111 42.4062V23.6562C44.4111 22.7933 43.7179 22.0938 42.8627 22.0938Z" fill="white"/>
</g>
<defs>
<clipPath id="clip0_1_73">
<rect width="24" height="25" fill="white" transform="translate(20.4111 20.5312)"/>
</clipPath>
</defs>
</svg>
